<?xml version="1.0" standalone="no"?>
<!DOCTYPE svg PUBLIC "-//W3C//DTD SVG 20010904//EN"
 "http://www.w3.org/TR/2001/REC-SVG-20010904/DTD/svg10.dtd">
<svg version="1.0" xmlns="http://www.w3.org/2000/svg"
 width="475.000000pt" height="475.000000pt" viewBox="0 0 475.000000 475.000000"
 preserveAspectRatio="xMidYMid meet">
<metadata>
Created by potrace 1.14, written by Peter Selinger 2001-2017
</metadata>
<g transform="translate(0.000000,475.000000) scale(0.100000,-0.100000)"
fill="#000000" stroke="none">
<path d="M3595 4341 c-32 -97 -152 -208 -244 -226 -12 -2 -25 -6 -29 -9 -4 -2
-28 -7 -52 -11 -25 -3 -52 -8 -60 -10 -32 -9 -159 -18 -235 -17 -360 6 -498 2
-545 -16 -14 -5 -28 -10 -32 -11 -122 -27 -372 -140 -433 -196 -6 -5 -28 -21
-48 -35 -20 -14 -37 -28 -37 -31 0 -3 -11 -19 -26 -35 -32 -36 -98 -153 -91
-160 3 -3 1 -18 -4 -33 -9 -26 -11 -27 -65 -21 -31 4 -113 5 -182 3 -119 -3
-154 -5 -227 -17 -20 -3 -41 3 -65 18 -40 26 -160 71 -238 91 -59 14 -144 11
-179 -7 -48 -24 -186 -284 -197 -370 -2 -21 -8 -42 -11 -48 -4 -7 -9 -37 -11
-68 -2 -31 -8 -58 -12 -61 -59 -43 -247 -424 -265 -536 -3 -16 -10 -42 -16
-57 -6 -16 -8 -28 -5 -28 4 0 1 -7 -6 -15 -7 -8 -10 -15 -7 -15 3 0 1 -15 -4
-32 -6 -18 -14 -58 -19 -88 -5 -30 -11 -66 -14 -79 -3 -13 -6 -69 -7 -125 -1
-125 13 -159 103 -237 34 -30 72 -64 85 -76 30 -28 134 -103 144 -103 5 0 48
-26 96 -58 l88 -57 0 -70 c0 -101 11 -220 30 -320 9 -49 69 -209 113 -305 73
-157 78 -182 55 -237 -7 -18 -13 -42 -13 -54 0 -22 18 -23 62 -4 15 6 15 3 6
-29 -14 -45 -6 -54 35 -37 18 7 39 14 47 15 9 1 20 5 27 9 26 16 106 6 128
-16 9 -9 25 -17 36 -17 26 0 173 41 179 50 3 4 15 10 26 14 50 16 160 151 224
276 18 36 41 76 50 90 9 14 25 37 34 53 19 31 30 31 113 -1 29 -11 54 -18 56
-15 3 2 15 -16 28 -41 12 -25 44 -70 71 -100 40 -45 48 -61 46 -88 -3 -54 8
-62 49 -38 29 17 38 18 51 8 8 -7 17 -12 19 -10 1 1 8 2 13 2 15 0 1 -121 -15
-140 -7 -8 -16 -31 -20 -51 -9 -48 7 -60 65 -49 25 4 49 5 55 2 5 -3 22 -5 37
-4 19 2 28 -2 28 -12 0 -9 14 -30 31 -47 l31 -32 61 31 c79 38 107 45 114 26
3 -7 19 -20 35 -29 29 -14 33 -13 63 5 18 11 38 27 45 35 7 8 20 15 30 15 30
0 127 59 191 117 41 37 153 176 183 228 14 24 24 30 49 28 81 -4 93 -11 128
-81 18 -36 41 -74 50 -83 29 -29 43 -62 43 -104 1 -44 -5 -43 108 -32 40 4 53
0 75 -19 26 -23 45 -29 68 -24 6 1 21 2 35 2 14 0 34 5 45 11 24 13 61 10 98
-10 16 -8 37 -11 50 -7 12 4 24 7 27 6 3 0 13 7 24 16 10 9 19 16 20 14 0 -2
14 1 29 7 16 6 31 11 34 11 25 0 176 244 187 302 2 14 10 36 16 48 6 12 13 36
15 53 2 18 4 32 5 32 13 0 29 313 17 332 -3 4 -8 33 -12 63 -4 30 -9 59 -12
63 -3 5 -7 23 -10 40 -6 43 -23 99 -36 115 -5 6 -6 12 -3 12 7 0 3 10 -48 108
-32 62 -28 85 18 110 64 33 152 111 202 179 16 21 31 40 34 43 11 11 51 107
55 130 2 14 10 50 18 80 35 128 41 312 13 420 -4 14 -8 41 -10 60 -2 19 -8 47
-14 63 -7 15 -14 38 -17 50 -14 67 -25 101 -59 177 -45 104 -103 218 -125 245
-9 11 -25 38 -36 60 -11 22 -25 46 -32 53 -7 7 -19 27 -27 45 -8 18 -29 64
-47 102 -18 39 -33 72 -34 75 -1 3 -7 25 -15 50 -24 82 -30 109 -31 160 -1 66
41 210 71 240 19 19 41 73 32 82 -11 11 -69 13 -140 3 l-53 -8 6 39 c4 21 16
62 27 91 11 29 17 57 13 62 -19 32 -174 -20 -226 -75 -26 -28 -39 -31 -39 -9
0 43 -60 120 -117 152 -20 12 -23 9 -38 -36z"/>
</g>
</svg>
